<?xml version="1.0" standalone="no"?><!DOCTYPE svg PUBLIC "-//W3C//DTD SVG 1.1//EN" "http://www.w3.org/Graphics/SVG/1.1/DTD/svg11.dtd"><svg t="1770014442731" class="icon" viewBox="0 0 1024 1024" version="1.1" xmlns="http://www.w3.org/2000/svg" p-id="7326" width="128" height="128" xmlns:xlink="http://www.w3.org/1999/xlink"><path d="M960 705.672533C960 801.216 755.8912 853.333333 437.333333 853.333333c-246.272-0.085333-373.9008-66.474667-368.925866-151.650133C74.517333 596.919467 254.357333 546.133333 500.629333 546.133333 746.901333 546.133333 960 652.672 960 705.672533z" fill="#F7F6F6" p-id="7327"></path><path d="M715.8272 713.1136s-9.096533 13.666133-20.360533 16.226133c0 0 38.557867 0.256 64.1152 3.413334 0 0 12.130133-18.359467 17.762133-19.639467-0.085333 0-40.721067 2.56-61.5168 0z m115.844267-16.823467s10.397867 2.986667 18.628266 3.413334c0 0 1.821867 21.0944-15.163733 34.1632 0 0-8.661333-8.541867-18.628267-12.381867 0 0 18.197333-6.237867 15.163734-25.194667zM813.0432 631.466667s9.096533 11.6992 22.0928 2.901333c0 0-1.472 19.729067 5.376 22.72 4.155733 2.56 12.821333 8.541867 12.821333 8.541867s-20.360533 8.964267-36.821333-7.688534c-6.5024-7.684267-3.4688-22.203733-3.4688-26.474666z" fill="#BDC7DE" p-id="7328"></path><path d="M742.301867 644.8768L563.2 789.333333l-6.126933-287.6416 188.16-108.650666z" fill="#E7EAEE" p-id="7329"></path><path d="M243.2 694.869333v-109.666133l261.341867 75.554133c17.5104-125.482667 52.5312-187.3408 52.5312-159.061333 0 15.018667 3.938133 213.405867 6.126933 287.637333l-320-94.464z" fill="#C7CCD7" p-id="7330"></path><path d="M560.034133 503.466667L469.333333 490.666667V315.733333l277.333334 79.138134z" fill="#B9BEC6" p-id="7331"></path><path d="M469.333333 486.4L247.466667 424.379733 469.333333 315.733333z" fill="#D9DDE9" p-id="7332"></path><path d="M806.4 533.333333l-62.314667-136.533333-1.685333 117.853867z" fill="#D6DDE9" p-id="7333"></path><path d="M508.096 665.6L187.733333 568.443733 248.213333 422.4 558.933333 501.1072z" fill="#DBE4EE" p-id="7334"></path><path d="M890.9056 181.969067c-5.218133-7.7952-43.029333 0.866133-59.9808 25.975466-4.778667 7.7952-9.9968 31.172267-6.084267 25.975467 9.9968-14.72 28.2496-6.058667 42.154667-17.749333 11.7376-9.5232 28.689067-28.142933 23.9104-34.2016z" fill="#F0F1F4" p-id="7335"></path><path d="M826.368 238.933333h-1.792c-4.032-2.197333 4.036267-25.0368 6.272-29.4272 13.444267-20.202667 40.328533-29.4272 53.768533-30.306133 5.376 0 8.512 1.757867 10.304 3.950933 7.168 10.103467-23.744 37.333333-24.64 37.333334-7.168 6.152533-15.232 7.031467-22.852266 7.906133-8.064 1.757867-15.68 2.197333-20.608 9.224533 0.896 0.439467 0.448 1.3184-0.448 1.3184z m59.144533-56.661333c-13.44 0-38.084267 9.224533-50.628266 28.113067-3.136 4.829867-5.376 15.3728-7.168 21.0816 6.272-6.148267 13.44-7.0272 20.608-7.906134 7.168-0.878933 14.336-2.197333 20.608-7.0272 13.444267-11.4176 26.884267-28.1088 23.748266-31.624533-0.448-1.757867-3.136-2.632533-7.168-2.632533z" fill="#B9BEC6" p-id="7336"></path><path d="M843.605333 217.6l-3.072-2.235733c14.0416-18.325333 30.280533-32.183467 64.512-42.013867 3.072-0.896 4.8256-1.792 5.265067-1.792 1.757867-0.891733 1.757867-0.891733 6.144-0.891733l0.878933 4.023466c-3.950933 0.896-3.950933 0.896-5.265066 0.896-0.878933 0-2.197333 0.891733-5.269334 1.783467-33.792 8.942933-50.026667 22.353067-63.1936 40.2304z" fill="#B9BEC6" p-id="7337"></path><path d="M217.6 727.0528c-0.861867 7.825067-32.7424 16.955733-55.5776 6.088533-7.752533-3.0464-20.676267-17.826133-15.940267-15.2192 13.789867 5.218133 23.697067-6.954667 38.775467-5.218133 12.4928 2.176 32.7424 8.260267 32.7424 14.3488z" fill="#F0F1F4" p-id="7338"></path><path d="M183.1808 738.133333c-8.174933 0-16.7808-1.800533-24.5248-4.9536-5.162667-2.2528-19.793067-14.4128-17.642667-18.4704 0 0 0.861867-2.248533 3.874134-0.896 6.882133 3.1488 12.0448 0.896 18.9312-1.8048 6.024533-2.2528 12.0448-4.9536 19.793066-3.153066 6.882133 0.900267 33.988267 7.210667 33.988267 16.6656 0 2.2528-1.719467 4.9536-5.162667 6.306133-6.455467 3.153067-17.211733 6.306133-29.256533 6.306133z m-36.573867-19.818666c3.012267 4.053333 9.0368 8.558933 12.906667 11.264 17.642667 8.106667 40.448 4.949333 49.480533-1.8048 2.1504-1.800533 3.012267-2.2528 3.012267-3.157334 0-4.053333-15.918933-10.3552-30.976-12.608-6.8864-0.900267-12.049067 1.800533-17.642667 3.153067-4.736 2.2528-9.898667 4.5056-16.7808 3.153067z" fill="#B9BEC6" p-id="7339"></path><path d="M228.194133 725.333333c-14.775467-3.963733-26.948267-2.2016-37.8112-1.762133-10.8672 0.439467-19.1232 1.762133-28.2496-1.757867l1.736534-3.963733c7.825067 3.080533 16.951467 2.2016 26.948266 1.762133 11.298133-0.8832 23.901867-2.2016 38.2464 1.757867l-0.8704 3.963733z m470.9376-409.9072c-11.298133 0-24.337067-2.645333-38.6816-8.362666l1.7408-3.963734c25.207467 9.685333 44.765867 11.008 59.541334 3.080534-5.649067-2.641067-9.130667-6.161067-11.3024-9.685334-4.778667-7.04-5.649067-16.285867-2.171734-24.648533 2.606933-7.04 12.168533-10.564267 19.9936-11.008 8.6912-0.4352 16.081067 2.205867 19.1232 7.488 2.171733 4.398933 3.473067 11.882667-5.218133 24.648533-3.042133 4.842667-6.954667 8.8064-10.862933 11.886934 4.343467 0.878933 9.1264 1.762133 15.645866 1.762133 22.165333 0 39.547733-17.169067 51.285334-50.624l3.908266 1.322667c-12.603733 35.652267-31.291733 53.700267-55.6288 53.700266-8.260267 0-14.775467-1.322667-19.9936-3.080533-7.3856 5.282133-16.512 7.483733-27.3792 7.483733z m31.726934-50.180266h-1.7408c-7.8208 0.439467-14.340267 3.959467-16.0768 8.362666-2.6112 7.04-2.176 14.523733 1.736533 20.689067 2.176 3.080533 5.649067 6.600533 12.168533 9.2416 4.778667-3.080533 8.6912-7.483733 12.168534-12.765867 5.649067-8.802133 7.389867-15.402667 5.218133-19.805866-3.042133-4.4032-8.695467-5.7216-13.474133-5.7216z m-420.608 394.325333c-8.96 1.668267-19.562667 1.578667-31.7312-0.7936l0.785066-3.345067c21.290667 3.869867 36.9408 1.937067 47.458134-6.5152-4.868267-1.237333-8.085333-3.524267-10.3424-5.9008-4.778667-4.842667-6.869333-11.972267-5.303467-19.101866 1.041067-5.9904 8.081067-10.2144 14.165333-11.712 6.784-1.672533 13.038933-0.704 16.170667 2.9952 2.346667 3.170133 4.522667 8.891733-0.5248 20.2496-1.6512 4.309333-4.168533 8.008533-6.865067 11.003733 3.562667 0 7.4752 0 12.603734-0.968533 17.472-3.345067 28.6848-19.541333 33.028266-47.7184l3.306667 0.439466c-4.693333 30.024533-16.776533 47.104-35.985067 50.798934-6.519467 1.237333-11.822933 1.237333-16.256 0.618666-5.0432 5.192533-11.908267 8.277333-20.514133 9.9456z m17.642666-44.458667l-1.390933 0.260267c-6.084267 1.493333-10.692267 5.282133-11.477333 9.066667-1.041067 5.9904 0.4352 11.797333 4.437333 16.0256 2.171733 2.112 5.3888 4.309333 10.948267 5.461333 3.306667-3.1744 5.738667-7.223467 7.739733-11.886933 3.127467-7.837867 3.562667-13.294933 1.216-16.375467-3.042133-3.0848-7.650133-3.259733-11.477333-2.555733z" fill="#CDD2D9" p-id="7340"></path><path d="M623.035733 809.813333c-7.232 8.576-6.621867 22.754133 10.5472 24.503467 13.422933 1.403733 30.592 5.162667 56.388267-4.113067l106.069333-65.211733c17.339733-10.6752 19.780267-35.272533 4.5312-48.750933-0.264533-0.264533-0.5248-0.5248-0.874666-0.699734a30.353067 30.353067 0 0 0-34.513067-3.413333c-33.2928 18.645333-116.177067 66.781867-142.148267 97.681067z" fill="#E2E6ED" opacity=".7" p-id="7341"></path><path d="M673.4592 823.466667L644.266667 776.375467l146.496-88.4224c3.362133-2.005333 7.786667-0.96 9.9968 2.350933l21.674666 34.9696c2.0352 3.400533 0.9728 7.675733-2.389333 9.856L673.4592 823.466667z" fill="#FDE9CB" p-id="7342"></path><path d="M757.8624 705.284267L773.546667 695.466667 802.133333 743.236267l-15.68 9.813333-28.586666-47.765333zM631.466667 816.213333l13.602133-40.516266 28.586667 47.7696-42.1888-7.253334z" fill="#FADAAB" p-id="7343"></path><path d="M674.133333 813.397333L779.8272 750.933333l0.9728 1.536L675.106133 814.933333z" fill="#FFFFFF" p-id="7344"></path><path d="M444.842667 376.362667l-1.813334 1.851733a5.205333 5.205333 0 0 1-7.355733 0l-37.380267-38.058667c-1.992533-2.0224-1.992533-5.371733 0-7.483733l1.8176-1.851733a5.205333 5.205333 0 0 1 7.351467 0l37.380267 38.058666c1.992533 2.112 1.992533 5.461333 0 7.483734z m59.8784-13.3888h-2.594134c-2.858667 0-5.192533-2.376533-5.192533-5.2864V303.957333c0-2.909867 2.333867-5.2864 5.192533-5.2864h2.594134c2.858667 0 5.192533 2.376533 5.192533 5.2864v53.7344c0 2.909867-2.338133 5.2864-5.192533 5.2864z m59.182933 15.240533l-1.813333-1.851733c-1.992533-2.026667-1.992533-5.376 0-7.488l37.376-38.0544a5.205333 5.205333 0 0 1 7.355733 0l1.8176 1.851733c1.992533 2.0224 1.992533 5.371733 0 7.488l-37.376 38.0544a5.205333 5.205333 0 0 1-7.36 0z" fill="#ACBBD1" p-id="7345"></path></svg>