<?xml version="1.0" standalone="no"?><!DOCTYPE svg PUBLIC "-//W3C//DTD SVG 1.1//EN" "http://www.w3.org/Graphics/SVG/1.1/DTD/svg11.dtd"><svg t="1770192151636" class="icon" viewBox="0 0 1103 1024" version="1.1" xmlns="http://www.w3.org/2000/svg" p-id="5530" width="137.875" height="128" xmlns:xlink="http://www.w3.org/1999/xlink"><path d="M27.929799 633.02913a27.790845 27.790845 0 1 1 27.790845-27.790845 27.790845 27.790845 0 0 1-27.790845 27.790845z m0-46.642302a18.52723 18.52723 0 1 0 18.52723 18.52723 18.52723 18.52723 0 0 0-18.52723-18.52723z" fill="#DBDBDB" p-id="5531"></path><path d="M858.181292 55.766962a27.790845 27.790845 0 1 1 27.790845-27.790845 27.790845 27.790845 0 0 1-27.790845 27.790845z m0-41.686267a13.895422 13.895422 0 1 0 13.895422 13.895422 13.895422 13.895422 0 0 0-13.895422-14.080695z" fill="#BBBBBB" p-id="5532"></path><path d="M301.160123 43.631627m-11.625837 0a11.625837 11.625837 0 1 0 23.251674 0 11.625837 11.625837 0 1 0-23.251674 0Z" fill="#BBBBBB" p-id="5533"></path><path d="M1086.946264 234.786322m-16.813461 0a16.813461 16.813461 0 1 0 33.626922 0 16.813461 16.813461 0 1 0-33.626922 0Z" fill="#F0F0F0" p-id="5534"></path><path d="M149.468428 405.607382m-14.868102 0a14.868102 14.868102 0 1 0 29.736204 0 14.868102 14.868102 0 1 0-29.736204 0Z" fill="#D6D6D6" p-id="5535"></path><path d="M1005.333816 793.104397a17.09137 17.09137 0 1 1 17.091369-17.09137 17.09137 17.09137 0 0 1-17.091369 17.09137z m0-24.919125a7.827755 7.827755 0 1 0 7.827754 7.827755 7.827755 7.827755 0 0 0-7.827754-7.827755z" fill="#E0E0E0" p-id="5536"></path><path d="M943.962367 364.98643a17.09137 17.09137 0 1 1 17.091369-17.091369 17.09137 17.09137 0 0 1-17.091369 17.091369z m0-24.919124a7.827755 7.827755 0 1 0 7.827754 7.827755 7.827755 7.827755 0 0 0-7.827754-7.781437z" fill="#BBBBBB" p-id="5537"></path><path d="M699.032386 868.880767m-13.756468 0a13.756468 13.756468 0 1 0 27.512937 0 13.756468 13.756468 0 1 0-27.512937 0Z" fill="#F5F5F5" p-id="5538"></path><path d="M128.810566 179.575176h-29.041433V150.533743h-13.895422v29.041433h-29.087751v13.895423h29.087751v29.087751h13.895422v-29.087751h29.041433v-13.895423zM670.732043 67.902298h-9.263615V88.004342h-20.055727v9.263615h20.055727v20.055727h9.263615V97.267957h20.055726v-9.263615h-20.055726v-20.102044zM148.866293 801.858513h-9.263615v15.887099h-15.8871v9.263615h15.8871v15.840782h9.263615v-15.840782h15.840781v-9.263615h-15.840781v-15.887099zM910.474398 661.375792h-17.184005v-17.184006h-13.895423v17.184006h-17.184006v13.895422h17.184006v17.184006h13.895423v-17.184006h17.184005v-13.895422z" fill="#BBBBBB" p-id="5539"></path><path d="M745.350461 988.103492c0 23.714854-85.595802 35.896508-191.201013 35.896508s-191.247331-12.135336-191.247331-35.896508 85.595802-35.896508 191.201013-35.896508 191.247331 12.181654 191.247331 35.896508z" fill="#C1C1C1" p-id="5540"></path><path d="M508.665099 305.652976a87.170617 87.170617 0 0 1-8.013027 113.618238l-44.326398 44.326398c-30.847838 30.847838-60.213497 28.207708-103.567216 18.064049-64.382124 85.64212-78.740727 148.21784-59.611362 167.254568 38.397684 38.397684 161.742718-26.771847 277.90845-143.030215 84.623123-84.623123 167.300887-225.522707 128.903202-264.013027-28.531934-28.485616-105.466257-0.555817-191.293649 63.779989z m-144.975575 302.966528a19.96309 19.96309 0 1 1 0-28.207707 19.96309 19.96309 0 0 1 0 28.207707z m114.127737-69.847657a19.96309 19.96309 0 1 1 0-28.207707 19.96309 19.96309 0 0 1 0.046318 28.254025z m91.987696-91.987696a19.96309 19.96309 0 1 1 0-28.207708 19.96309 19.96309 0 0 1 0.046319 28.254026z m69.847657-114.127737a19.96309 19.96309 0 1 1 0-28.207708 19.96309 19.96309 0 0 1 0 28.207708z" fill="#F0F0F0" p-id="5541"></path><path d="M667.721368 236.50009c12.459562 0 22.001086 3.195947 28.346662 9.587842 16.442917 16.442917 11.486883 54.423738-13.571196 104.215669-26.354985 52.339425-71.607744 111.904469-127.421024 167.717749-90.042338 90.042338-187.958748 150.580062-243.586756 150.580061-12.459562 0-22.001086-3.195947-28.346662-9.587841-24.872806-24.872806-0.416863-96.665822 60.86195-179.528859a93.377239 93.377239 0 0 0 50.949883 15.192329 91.895061 91.895061 0 0 0 65.215849-27.049756l44.326398-44.326397a93.099331 93.099331 0 0 0 11.811109-116.397323c60.584042-44.835897 115.517279-70.449792 151.182196-70.449792m-42.149448 107.735843a25.660213 25.660213 0 1 0-18.110367-7.503529 25.474941 25.474941 0 0 0 18.110367 7.503529m-69.847657 114.127736a25.660213 25.660213 0 1 0-18.110367-7.503528 25.474941 25.474941 0 0 0 18.110367 7.503528m-91.987696 91.987697a25.660213 25.660213 0 1 0-18.110368-7.503528 25.474941 25.474941 0 0 0 18.110368 7.503528m-114.127737 69.847657a25.660213 25.660213 0 1 0-18.110367-7.503528 25.474941 25.474941 0 0 0 18.110367 7.503528m318.112538-389.396056c-37.888185 0-96.156324 27.790845-159.056269 74.896327a87.170617 87.170617 0 0 1-8.013027 113.618238l-44.326397 44.326398a87.216935 87.216935 0 0 1-113.618238 8.013027c-64.382124 85.64212-92.311923 162.761715-63.641035 191.432603 7.596164 7.596164 18.52723 11.255292 32.422652 11.255292 55.58169 0 154.424462-59.055546 247.616429-152.247512 116.258368-116.258368 179.389904-241.595079 140.99222-279.992763-7.596164-7.596164-18.52723-11.255292-32.422653-11.255292z m-42.149448 107.735842a19.96309 19.96309 0 1 1 13.895423-5.836077 19.870454 19.870454 0 0 1-13.895423 5.836077z m-69.616066 114.266691a19.96309 19.96309 0 1 1 13.895422-5.836077 19.870454 19.870454 0 0 1-13.895422 5.836077z m-91.987697 91.987697a19.96309 19.96309 0 1 1 13.895422-5.836077 19.870454 19.870454 0 0 1-13.895422 5.836077z m-114.127737 69.847657a19.96309 19.96309 0 1 1 13.895423-5.836078 19.870454 19.870454 0 0 1-13.895423 5.836078z" fill="#BBBBBB" p-id="5542"></path><path d="M329.923648 275.824136c-38.814547 38.814547-37.888185 102.316627-1.852723 143.586032a111.16338 111.16338 0 0 0 131.774923 27.512937 8.939388 8.939388 0 0 0 2.084313-1.389542c1.296906-1.157952 2.547494-2.315904 3.798082-3.566492l27.559255-27.559255c1.250588-1.250588 2.40854-2.501176 3.566492-3.798082a8.89307 8.89307 0 0 0 1.389542-2.084313c19.685182-41.269405 8.42989-92.172969-25.75285-126.355709-45.252759-45.113805-116.860503-32.098426-142.567034-6.345576z m61.973584 137.425728c-7.22562 7.22562-24.363307 1.806405-38.25873-12.089017s-19.314637-31.03311-12.089018-38.25873S365.912792 361.095712 379.808214 374.991134s19.314637 31.03311 12.089018 38.25873z m58.407092-58.407092c-7.22562 7.22562-24.363307 1.806405-38.25873-12.089018s-19.314637-31.03311-12.089017-38.25873 24.363307-1.806405 38.25873 12.089018 19.314637 30.986792 12.089017 38.212412z" fill="#F0F0F0" p-id="5543"></path><path d="M397.9649 255.490501a105.419938 105.419938 0 0 1 95.137325 150.950606 3.195947 3.195947 0 0 1-0.509498 0.741089c-1.065316 1.20427-2.17695 2.40854-3.334902 3.566492l-41.686267 41.686268c-1.157952 1.157952-2.362222 2.269586-3.566492 3.334901a3.195947 3.195947 0 0 1-0.741089 0.509499 105.419938 105.419938 0 1 1-45.345395-200.557264m43.724262 108.01375a17.739823 17.739823 0 0 0 12.876425-4.863398c9.773114-9.773114 4.631807-29.689886-12.089018-46.318075-10.606839-10.606839-23.159037-16.952415-33.44165-16.952415a17.739823 17.739823 0 0 0-12.876424 4.863398c-9.773114 9.773114-4.631807 29.689886 12.089017 46.318075 10.606839 10.606839 23.159037 16.952415 33.44165 16.952415M383.235752 422.142935a17.739823 17.739823 0 0 0 12.876425-4.863398c9.773114-9.773114 4.631807-29.689886-12.089018-46.318075-10.606839-10.606839-23.159037-16.952415-33.44165-16.952416a17.739823 17.739823 0 0 0-12.876425 4.863398c-9.773114 9.773114-4.631807 29.689886 12.089018 46.318075 10.606839 10.606839 23.159037 16.952415 33.44165 16.952416m14.91442-172.349557a111.16338 111.16338 0 1 0 47.800253 211.395694 8.939388 8.939388 0 0 0 2.084314-1.389542c1.296906-1.157952 2.547494-2.315904 3.798082-3.566492l41.686267-41.686268c1.250588-1.250588 2.40854-2.501176 3.566492-3.798082a8.89307 8.89307 0 0 0 1.389542-2.084313 111.16338 111.16338 0 0 0-100.278632-158.917315z m43.492672 108.245341c-8.383572 0-19.685182-5.558169-29.411977-15.284965-13.895422-13.895422-19.314637-31.03311-12.089018-38.25873a12.135336 12.135336 0 0 1 8.846752-3.195947c8.383572 0 19.685182 5.558169 29.411978 15.284965 13.895422 13.895422 19.314637 31.03311 12.089018 38.25873a12.135336 12.135336 0 0 1-8.846753 3.195947zM383.235752 416.445811c-8.383572 0-19.685182-5.558169-29.411978-15.284964-13.895422-13.895422-19.314637-31.03311-12.089017-38.25873a12.135336 12.135336 0 0 1 8.846752-3.195947c8.383572 0 19.685182 5.558169 29.411978 15.284964 13.895422 13.895422 19.314637 31.03311 12.089017 38.25873a12.135336 12.135336 0 0 1-8.846752 3.195947z" fill="#BBBBBB" p-id="5544"></path></svg>